<?xml version="1.0" encoding="iso-8859-1"?>
<!-- Generator: Adobe Illustrator 19.0.0, SVG Export Plug-In . SVG Version: 6.00 Build 0)  -->
<svg version="1.1" id="Layer_1" xmlns="http://www.w3.org/2000/svg" xmlns:xlink="http://www.w3.org/1999/xlink" x="0px" y="0px"
	 viewBox="0 0 509.287 509.287" style="enable-background:new 0 0 509.287 509.287;" xml:space="preserve">
<circle style="fill:#FBD303;" cx="254.644" cy="254.644" r="254.644"/>
<path style="fill:#4F5565;" d="M322.119,442.151c-45.097,14.919-90.193,14.919-135.29,0c25.77-26.109,25.77-52.217,0-78.326
	c45.097-14.919,90.193-14.919,135.29,0C296.689,389.934,296.689,416.042,322.119,442.151z"/>
<path style="fill:#414753;" d="M306.183,386.882c3.052-7.799,8.477-15.258,15.936-23.057c-45.097-14.919-90.193-14.919-135.29,0
	c7.46,7.799,12.885,15.258,15.936,23.057H306.183z"/>
<path style="fill:#646B79;" d="M469.616,38.654H39.672c-3.73,0-6.781,3.052-6.781,6.781v319.068c0,3.73,3.052,6.781,6.781,6.781
	h429.944c3.73,0,6.781-3.052,6.781-6.781V45.436C476.397,41.706,473.346,38.654,469.616,38.654z"/>
<rect x="50.861" y="54.93" style="fill:#6EB1E1;" width="407.905" height="258.713"/>
<rect x="50.861" y="309.573" style="fill:#5093BC;" width="407.905" height="4.069"/>
<rect x="50.861" y="54.93" style="fill:#87CBF4;" width="407.905" height="4.069"/>
<path style="fill:#646B79;" d="M327.883,437.743H181.404c-20.344,0-36.959,14.919-36.959,32.89h220.397
	C364.842,452.662,348.228,437.743,327.883,437.743z"/>
<g>
	<rect x="81.377" y="92.567" style="fill:#F1F3F7;" width="91.889" height="11.189"/>
	<rect x="81.377" y="127.491" style="fill:#F1F3F7;" width="150.548" height="11.189"/>
	<rect x="81.377" y="162.755" style="fill:#F1F3F7;" width="150.548" height="11.189"/>
	<rect x="81.377" y="197.679" style="fill:#F1F3F7;" width="150.548" height="11.189"/>
	<rect x="81.377" y="232.943" style="fill:#F1F3F7;" width="150.548" height="11.189"/>
	<rect x="81.377" y="267.868" style="fill:#F1F3F7;" width="109.181" height="11.189"/>
</g>
<polygon style="fill:#393D47;" points="342.464,210.903 369.589,281.091 375.015,243.454 412.652,238.029 "/>
<circle style="fill:#F1F3F7;" cx="254.644" cy="339.412" r="8.477"/>
<g>
</g>
<g>
</g>
<g>
</g>
<g>
</g>
<g>
</g>
<g>
</g>
<g>
</g>
<g>
</g>
<g>
</g>
<g>
</g>
<g>
</g>
<g>
</g>
<g>
</g>
<g>
</g>
<g>
</g>
</svg>
