<svg xmlns="http://www.w3.org/2000/svg" width="101" height="300" viewBox="0 0 101 305"><defs><clipPath id="id0"><path d="M50 306c28 0 51 23 51 51 0 27-23 50-51 50-27 0-50-23-50-50 0-28 23-51 50-51z"/></clipPath></defs><g fill-rule="evenodd"><path fill="#41658B" d="M50-1C23-1 0 22 0 50c0 27 23 50 50 50 28 0 51-23 51-50 0-28-23-51-51-51zm26 56c2 2 5 4 7 7 1 1 2 2 2 4 1 1 1 3-1 4H74c-3 0-5-1-7-3-1-2-3-3-4-5-1 0-1-1-2-1-1-1-3-1-3 1-1 1-1 3-2 4 0 3 0 3-3 4-5 0-10-1-15-4-4-2-7-5-10-9-5-7-9-15-13-23 0-2 0-3 2-3h10c2 0 3 1 3 2 2 4 4 9 7 13 1 1 1 2 3 3 1 0 2 0 2-1 1-1 1-2 1-3v-9c-1-2-2-3-4-4-1 0-1 0 0-1s2-2 3-2h12c2 1 2 2 2 3v13c0 1 1 3 2 4 1 0 2-1 2-1 3-3 5-7 7-10 1-2 1-4 2-5 0-2 1-2 3-2h12c2 0 2 1 2 3-1 3-3 5-5 8-2 2-4 5-5 7-2 3-2 4 0 6z"/><g clip-path="url(#id0)" transform="translate(0 -104)"><path fill="#BE3308" d="M-9 297v119h119V297H-9zm69 65c-2 13-12 21-25 21-14 0-26-12-26-27 0-14 12-26 26-26 7 0 14 3 18 7l-7 7c-3-2-7-4-11-4-8 0-15 8-15 16 0 9 7 16 15 16s13-3 15-10H35v-11h25c1 2 1 3 1 5s0 4-1 6zm32-4h-9v10h-7v-10h-9v-6h9v-9h7v9h9v6z"/></g><circle fill="#39579A" cx="50" cy="151" r="50"/><g style="font-family:'Arial';font-weight:normal"><text x="35" y="181" font-weight="bold" font-size="83.4403px" fill="#FEFEFE">f</text></g></g></svg>