<?xml version="1.0" encoding="iso-8859-1"?>
<!-- Generator: Adobe Illustrator 19.0.0, SVG Export Plug-In . SVG Version: 6.00 Build 0)  -->
<svg version="1.1" id="Layer_1" xmlns="http://www.w3.org/2000/svg" xmlns:xlink="http://www.w3.org/1999/xlink" x="0px" y="0px"
	 viewBox="0 0 509.287 509.287" style="enable-background:new 0 0 509.287 509.287;" xml:space="preserve">
<circle style="fill:#6EB1E1;" cx="254.644" cy="254.644" r="254.644"/>
<polygon style="fill:#FCFCFD;" points="176.996,280.074 53.574,355.687 53.574,410.617 218.024,380.44 "/>
<path style="fill:#646B79;" d="M61.372,298.384c-9.155,10.511-13.902,23.057-16.275,32.89h32.212
	C75.274,321.441,70.527,308.895,61.372,298.384z"/>
<path style="fill:#F1F3F7;" d="M45.097,331.274c-2.374,9.833-2.374,16.954-2.374,16.954v72.901h36.62v-72.901
	c0,0,0-7.121-2.374-16.954H45.097z"/>
<g>
	<rect x="43.062" y="407.566" style="fill:#646B79;" width="36.62" height="13.902"/>
	<circle style="fill:#646B79;" cx="126.135" cy="356.705" r="19.666"/>
</g>
<polygon style="fill:#FCFCFD;" points="332.291,280.074 455.714,355.687 455.714,410.617 291.264,380.44 "/>
<path style="fill:#646B79;" d="M447.915,298.384c9.155,10.511,13.902,23.057,16.276,32.89h-32.212
	C434.013,321.441,438.76,308.895,447.915,298.384z"/>
<path style="fill:#F1F3F7;" d="M464.191,331.274c2.374,9.833,2.374,16.954,2.374,16.954v72.901h-36.62v-72.901
	c0,0,0-7.121,2.373-16.954H464.191z"/>
<g>
	<rect x="429.605" y="407.566" style="fill:#646B79;" width="36.62" height="13.902"/>
	<circle style="fill:#646B79;" cx="383.152" cy="356.705" r="19.666"/>
	<path style="fill:#646B79;" d="M196.662,431.301h57.981h57.981c0,0,4.408-8.138,9.494-23.396H187.168
		C192.254,422.824,196.662,431.301,196.662,431.301z"/>
</g>
<path style="fill:#F1F3F7;" d="M303.809,121.049h-98.331c-57.303,134.273-33.907,241.42-18.31,286.856h135.29
	C337.717,362.469,361.452,255.322,303.809,121.049z"/>
<path style="fill:#646B79;" d="M254.644,30.517c-20.683,31.195-36.959,61.372-49.166,90.532h98.331
	C291.603,91.889,275.327,61.711,254.644,30.517z"/>
<circle style="fill:#F0582F;" cx="254.644" cy="231.926" r="57.981"/>
<circle style="fill:#FFFFFC;" cx="254.644" cy="231.926" r="36.62"/>
<g>
</g>
<g>
</g>
<g>
</g>
<g>
</g>
<g>
</g>
<g>
</g>
<g>
</g>
<g>
</g>
<g>
</g>
<g>
</g>
<g>
</g>
<g>
</g>
<g>
</g>
<g>
</g>
<g>
</g>
</svg>
