<?xml version="1.0" encoding="iso-8859-1"?>
<!-- Generator: Adobe Illustrator 19.0.0, SVG Export Plug-In . SVG Version: 6.00 Build 0)  -->
<svg version="1.1" id="Layer_1" xmlns="http://www.w3.org/2000/svg" xmlns:xlink="http://www.w3.org/1999/xlink" x="0px" y="0px"
	 viewBox="0 0 509.287 509.287" style="enable-background:new 0 0 509.287 509.287;" xml:space="preserve">
<circle style="fill:#F0582F;" cx="254.644" cy="254.644" r="254.644"/>
<path style="fill:#FBD303;" d="M93.584,145.123v91.889H47.809c-17.293,0-31.534,14.241-31.534,31.534v56.625
	c0,7.121,5.764,12.885,12.885,12.885h438.421c7.121,0,12.885-5.764,12.885-12.885V145.123H93.584z"/>
<path style="fill:#F8B517;" d="M479.449,122.744H88.837c-7.799,0-13.902,6.103-13.902,13.902c0,7.46,6.103,13.902,13.902,13.902
	h390.612c7.799,0,13.902-6.103,13.902-13.902C493.351,128.848,486.909,122.744,479.449,122.744z"/>
<g>
	<rect x="111.216" y="172.249" style="fill:#0090FF;" width="49.844" height="54.591"/>
	<rect x="265.155" y="172.249" style="fill:#0090FF;" width="53.913" height="54.591"/>
	<rect x="337.717" y="172.249" style="fill:#0090FF;" width="53.913" height="54.591"/>
	<rect x="408.244" y="172.249" style="fill:#0090FF;" width="53.913" height="54.591"/>
	<rect x="178.352" y="172.249" style="fill:#0090FF;" width="66.119" height="165.468"/>
</g>
<circle style="fill:#4F5565;" cx="92.567" cy="338.056" r="48.487"/>
<circle style="fill:#DEDEDF;" cx="92.567" cy="338.056" r="29.16"/>
<circle style="fill:#4F5565;" cx="399.089" cy="338.056" r="48.487"/>
<circle style="fill:#DEDEDF;" cx="399.089" cy="338.056" r="29.16"/>
<g>
</g>
<g>
</g>
<g>
</g>
<g>
</g>
<g>
</g>
<g>
</g>
<g>
</g>
<g>
</g>
<g>
</g>
<g>
</g>
<g>
</g>
<g>
</g>
<g>
</g>
<g>
</g>
<g>
</g>
</svg>
