<?xml version="1.0" encoding="iso-8859-1"?>
<!-- Generator: Adobe Illustrator 19.0.0, SVG Export Plug-In . SVG Version: 6.00 Build 0)  -->
<svg version="1.1" id="Layer_1" xmlns="http://www.w3.org/2000/svg" xmlns:xlink="http://www.w3.org/1999/xlink" x="0px" y="0px"
	 viewBox="0 0 509.287 509.287" style="enable-background:new 0 0 509.287 509.287;" xml:space="preserve">
<path style="fill:#6EB1E1;" d="M509.287,254.644C509.287,113.928,395.359,0,254.644,0S0,113.928,0,254.644
	c0,70.188,28.482,133.595,74.257,179.709H435.37C480.805,388.238,509.287,324.832,509.287,254.644z"/>
<path style="fill:#73D658;" d="M74.257,434.352c46.114,46.453,109.86,74.935,180.387,74.935s134.273-28.821,180.387-74.935H74.257z"
	/>
<polygon style="fill:#FBD303;" points="427.571,434.352 81.717,434.352 81.717,194.967 254.305,57.642 427.571,194.967 "/>
<path style="fill:#F0582F;" d="M469.616,178.691L254.644,19.666L39.672,178.691c-14.919,10.85-14.919,33.229,0,44.079l0,0
	c9.833,7.121,23.057,7.121,32.89,0L254.644,87.82l182.082,134.951c9.833,7.121,23.057,7.121,32.89,0l0,0
	C484.196,211.921,484.196,189.542,469.616,178.691z"/>
<rect x="208.191" y="284.143" style="fill:#4F5565;" width="92.906" height="150.209"/>
<rect x="218.702" y="294.993" style="fill:#646B79;" width="71.883" height="139.359"/>
<g>
	<rect x="230.23" y="307.2" style="fill:#4F5565;" width="17.632" height="50.522"/>
	<rect x="261.425" y="307.2" style="fill:#4F5565;" width="17.632" height="50.522"/>
	<rect x="230.23" y="371.624" style="fill:#4F5565;" width="17.632" height="50.522"/>
	<rect x="261.425" y="371.624" style="fill:#4F5565;" width="17.632" height="50.522"/>
	<rect x="111.894" y="284.143" style="fill:#4F5565;" width="69.51" height="107.825"/>
</g>
<rect x="120.032" y="294.993" style="fill:#646B79;" width="53.234" height="85.785"/>
<g>
	<rect x="125.118" y="299.062" style="fill:#0090FF;" width="43.062" height="25.43"/>
	<rect x="125.118" y="329.24" style="fill:#0090FF;" width="43.062" height="46.114"/>
</g>
<rect x="327.883" y="284.143" style="fill:#4F5565;" width="69.51" height="107.825"/>
<rect x="336.021" y="294.993" style="fill:#646B79;" width="53.234" height="85.785"/>
<g>
	<rect x="341.107" y="299.062" style="fill:#0090FF;" width="43.062" height="25.43"/>
	<rect x="341.107" y="329.24" style="fill:#0090FF;" width="43.062" height="46.114"/>
</g>
<circle style="fill:#4F5565;" cx="254.644" cy="196.662" r="55.608"/>
<circle style="fill:#F1F3F7;" cx="254.644" cy="196.662" r="43.401"/>
<polygon style="fill:#F0582F;" points="258.713,200.731 230.23,200.731 230.23,192.254 250.575,192.254 250.575,160.381 
	258.713,160.381 "/>
<g>
</g>
<g>
</g>
<g>
</g>
<g>
</g>
<g>
</g>
<g>
</g>
<g>
</g>
<g>
</g>
<g>
</g>
<g>
</g>
<g>
</g>
<g>
</g>
<g>
</g>
<g>
</g>
<g>
</g>
</svg>
