<?xml version="1.0" encoding="iso-8859-1"?>
<!-- Generator: Adobe Illustrator 19.0.0, SVG Export Plug-In . SVG Version: 6.00 Build 0)  -->
<svg version="1.1" id="Layer_1" xmlns="http://www.w3.org/2000/svg" xmlns:xlink="http://www.w3.org/1999/xlink" x="0px" y="0px"
	 viewBox="0 0 509.287 509.287" style="enable-background:new 0 0 509.287 509.287;" xml:space="preserve">
<circle style="fill:#73D658;" cx="254.644" cy="254.644" r="254.644"/>
<path style="fill:#F1F3F7;" d="M405.87,56.964h-75.952c-4.747,0-8.816,5.425-8.816,11.868v371.963
	c0,6.442,4.069,11.868,8.816,11.868h75.952c4.747,0,8.816-5.425,8.816-11.868V68.832C414.686,62.05,410.617,56.964,405.87,56.964z"
	/>
<g>
	<rect x="376.71" y="74.257" style="fill:#BDBDBE;" width="37.976" height="5.764"/>
	<rect x="391.968" y="93.923" style="fill:#BDBDBE;" width="22.718" height="5.764"/>
	<rect x="376.71" y="115.963" style="fill:#BDBDBE;" width="37.976" height="5.764"/>
	<rect x="391.968" y="135.968" style="fill:#BDBDBE;" width="22.718" height="5.764"/>
	<rect x="376.71" y="158.008" style="fill:#BDBDBE;" width="37.976" height="5.764"/>
	<rect x="391.968" y="178.013" style="fill:#BDBDBE;" width="22.718" height="5.764"/>
	<rect x="376.71" y="200.053" style="fill:#BDBDBE;" width="37.976" height="5.764"/>
	<rect x="391.968" y="219.719" style="fill:#BDBDBE;" width="22.718" height="5.764"/>
	<rect x="376.71" y="241.759" style="fill:#BDBDBE;" width="37.976" height="5.764"/>
	<rect x="391.968" y="261.764" style="fill:#BDBDBE;" width="22.718" height="5.764"/>
	<rect x="376.71" y="283.804" style="fill:#BDBDBE;" width="37.976" height="5.764"/>
	<rect x="391.968" y="303.809" style="fill:#BDBDBE;" width="22.718" height="5.764"/>
	<rect x="376.71" y="325.51" style="fill:#BDBDBE;" width="37.976" height="5.764"/>
	<rect x="391.968" y="345.515" style="fill:#BDBDBE;" width="22.718" height="5.764"/>
	<rect x="376.71" y="367.555" style="fill:#BDBDBE;" width="37.976" height="5.764"/>
	<rect x="391.968" y="387.56" style="fill:#BDBDBE;" width="22.718" height="5.764"/>
	<rect x="376.71" y="409.6" style="fill:#BDBDBE;" width="37.976" height="5.764"/>
	<rect x="391.968" y="429.266" style="fill:#BDBDBE;" width="22.718" height="5.764"/>
</g>
<polygon style="fill:#F7CFA2;" points="269.224,364.164 231.926,331.952 194.967,364.164 219.719,423.163 244.472,423.163 "/>
<path style="fill:#FF7555;" d="M247.862,364.164c-8.816,9.494-22.718,9.494-31.534,0c0-77.648,0-160.721,0-238.029
	c10.511,0,21.023,0,31.534,0C247.862,203.444,247.862,286.517,247.862,364.164z"/>
<path style="fill:#F0582F;" d="M269.224,364.164c-6.103,9.494-15.258,9.494-21.362,0c0-77.648,0-160.721,0-238.029
	c7.121,0,14.241,0,21.362,0C269.224,203.444,269.224,286.517,269.224,364.164z"/>
<path style="fill:#FF9580;" d="M216.328,364.164c-6.103,9.494-15.258,9.494-21.362,0c0-77.648,0-160.721,0-238.029
	c7.121,0,14.241,0,21.362,0C216.328,203.444,216.328,286.517,216.328,364.164z"/>
<polygon style="fill:#4F5565;" points="244.472,423.163 219.719,423.163 231.926,452.323 "/>
<path style="fill:#F7CFA2;" d="M269.224,85.785c0-15.936-10.511-28.821-23.396-28.821h-27.804
	c-12.885,0-23.396,12.885-23.396,28.821v11.528h74.257L269.224,85.785z"/>
<rect x="194.967" y="97.314" style="fill:#F1F3F7;" width="74.257" height="28.482"/>
<g>
	<path style="fill:#DDDEE6;" d="M269.902,101.722H193.95c-2.034,0-3.391,1.695-3.391,4.069c0,2.374,1.695,4.069,3.391,4.069h75.952
		c2.034,0,3.391-1.695,3.391-4.069C273.632,103.417,271.936,101.722,269.902,101.722z"/>
	<path style="fill:#DDDEE6;" d="M269.902,113.589H193.95c-2.034,0-3.391,1.695-3.391,4.069s1.695,4.069,3.391,4.069h75.952
		c2.034,0,3.391-1.695,3.391-4.069C273.632,115.624,271.936,113.589,269.902,113.589z"/>
</g>
<path style="fill:#FBD303;" d="M121.388,145.123c-12.546,0-23.396,23.057-26.109,84.09h51.539
	C144.445,168.519,133.934,145.123,121.388,145.123z"/>
<path style="fill:#393D47;" d="M119.693,152.244c-9.833,0-24.074-6.442-24.752-30.517c-0.678-24.074,17.293-48.148,3.391-64.763
	c0,0,49.505,18.988,49.505,57.303C147.836,143.767,134.273,152.244,119.693,152.244z"/>
<path style="fill:#886C60;" d="M147.158,229.552H95.619c-0.339,9.155-0.678,19.327-0.678,30.177
	c0,7.121,12.546,188.525,25.77,188.525c13.563,0,26.787-181.743,26.787-188.525C147.497,248.54,147.497,238.707,147.158,229.552z"/>
<g>
</g>
<g>
</g>
<g>
</g>
<g>
</g>
<g>
</g>
<g>
</g>
<g>
</g>
<g>
</g>
<g>
</g>
<g>
</g>
<g>
</g>
<g>
</g>
<g>
</g>
<g>
</g>
<g>
</g>
</svg>
