<svg xmlns="http://www.w3.org/2000/svg" viewBox="0 0 509.29 5103" width="160" height="160">
	<defs>
		<style>.f1 {fill:#fbd303} .f2 {fill:#f0582f} .f3 {fill:#4f5565} .f4 {fill:#f1f3f7}</style>
	</defs>
	<g>
		<path d="M509.29 254.64C509.29 113.93 395.36 0 254.64 0S0 113.93 0 254.64c0 70.2 28.48 133.6 74.26 179.71h361.11c45.44-46.11 73.92-109.52 73.92-179.7z" fill="#6eb1e1"/><path d="M74.26 434.35c46.11 46.45 109.86 74.94 180.38 74.94s134.28-28.82 180.4-74.94H74.25z" fill="#73d658"/><path class="f1" d="M427.57 434.35H81.72V194.97L254.3 57.64l173.26 137.33z"/><path d="M469.62 178.7L254.64 19.66 39.67 178.69c-14.92 10.85-14.92 33.23 0 44.08a27.99 27.99 0 0 0 32.9 0L254.63 87.82l182.09 134.95a27.99 27.99 0 0 0 32.89 0c14.58-10.85 14.58-33.23 0-44.08z" class="f2"/><path class="f3" d="M208.19 284.14h92.91v150.21h-92.91z"/><path fill="#646b79" d="M218.7 294.99h71.88v139.36H218.7z"/><path d="M230.23 307.2h17.63v50.52h-17.63zm31.2 0h17.63v50.52h-17.63zm-31.2 64.42h17.63v50.52h-17.63zm31.2 0h17.63v50.52h-17.63zm-149.54-87.48h69.51v107.83h-69.51z" class="f3"/><path fill="#646b79" d="M120.03 294.99h53.23v85.78h-53.23z"/><path d="M125.12 299.06h43.06v25.43h-43.06zm0 30.18h43.06v46.11h-43.06z" fill="#0090ff"/><path class="f3" d="M327.88 284.14h69.51v107.83h-69.51z"/><path fill="#646b79" d="M336.02 294.99h53.23v85.78h-53.23z"/><path d="M341.11 299.06h43.06v25.43h-43.06zm0 30.18h43.06v46.11h-43.06z" fill="#0090ff"/><circle cx="254.64" cy="196.66" r="55.61" class="f3"/><circle cx="254.64" cy="196.66" r="43.4" class="f4"/><path class="f2" d="M258.71 200.73h-28.48v-8.48h20.34v-31.87h8.14z"/>
	</g>
	<g transform="translate(0 510)">
		<circle cx="254.64" cy="254.64" r="254.64" class="f2"/><path d="M93.58 145.12v91.9H47.81a31.7 31.7 0 0 0-31.54 31.53v56.62c0 7.12 5.77 12.89 12.89 12.89h438.42c7.12 0 12.89-5.77 12.89-12.89V145.12H93.58z" class="f1"/><path d="M479.45 122.74H88.84c-7.8 0-13.9 6.1-13.9 13.9 0 7.47 6.1 13.9 13.9 13.9h390.6c7.8 0 13.91-6.1 13.91-13.9 0-7.8-6.44-13.9-13.9-13.9z" fill="#f8b517"/><path d="M111.22 172.25h49.84v54.59h-49.84zm153.93 0h53.91v54.59h-53.91zm72.57 0h53.91v54.59h-53.91zm70.52 0h53.91v54.59h-53.91zm-229.89 0h66.12v165.47h-66.12z" fill="#0090ff"/><circle cx="92.57" cy="338.06" r="48.49" class="f3"/><circle cx="92.57" cy="338.06" r="29.16" fill="#dededf"/><circle cx="399.09" cy="338.06" r="48.49" class="f3"/><circle cx="399.09" cy="338.06" r="29.16" fill="#dededf"/>
	</g>
	<g transform="translate(0 1020)">
		<circle cx="254.64" cy="254.64" r="254.64" class="f1"/><path d="M322.12 442.15c-45.1 14.92-90.2 14.92-135.3 0 25.78-26.1 25.78-52.22 0-78.32 45.1-14.92 90.2-14.92 135.3 0-25.43 26.1-25.43 52.21 0 78.32z" class="f3"/><path d="M306.18 386.88c3.05-7.8 8.48-15.26 15.94-23.05-45.1-14.92-90.2-14.92-135.3 0 7.47 7.8 12.9 15.25 15.94 23.05h103.42z" fill="#414753"/><path d="M469.62 38.65H39.67a6.8 6.8 0 0 0-6.78 6.79V364.5a6.8 6.8 0 0 0 6.78 6.78h429.95a6.8 6.8 0 0 0 6.78-6.78V45.44a6.8 6.8 0 0 0-6.78-6.79z" fill="#646b79"/><path fill="#6eb1e1" d="M50.86 54.93h407.9v258.71H50.86z"/><path fill="#5093bc" d="M50.86 309.57h407.9v4.07H50.86z"/><path fill="#87cbf4" d="M50.86 54.93h407.9V59H50.86z"/><path d="M327.88 437.74H181.4c-20.34 0-36.96 14.92-36.96 32.9h220.4c0-17.98-16.61-32.9-36.96-32.9z" fill="#646b79"/><path d="M81.38 92.57h91.89v11.19H81.38zm0 34.92h150.55v11.19H81.38zm0 35.26h150.55v11.19H81.38zm0 34.93h150.55v11.19H81.38zm0 35.26h150.55v11.19H81.38zm0 34.93h109.18v11.19H81.38z" class="f4"/><path fill="#393d47" d="M342.46 210.9l27.13 70.2 5.43-37.65 37.63-5.42z"/><circle cx="254.64" cy="339.41" r="8.48" class="f4"/>
	</g>
	<g transform="translate(0 1530)">
		<circle cx="254.64" cy="254.64" r="254.64" class="f1"/><path d="M426.21 354.33v-27.12c0-25.77-22.04-46.8-49.16-46.8H132.24c-27.13 0-49.17 21.02-49.17 46.8v27.12h343.14z" fill="#74594e"/><path d="M304.49 322.12c-22.38 37.98-77.65 37.98-100.03 0v-65.44H304.5v65.44z" fill="#f0ba7a"/><path d="M438.08 359.42c-3.05-12.89-13.22-23.06-26.78-27.47l-93.59-28.14-23.06 21.36-80.36.34-25.77-21.7L98 331.95c-13.56 4.41-23.4 14.92-26.79 27.47l-13.9 55.94c46.46 57.3 117.66 93.93 197.34 93.93s150.89-36.62 197.68-93.93l-14.24-55.94z" class="f4"/><circle cx="253.29" cy="139.36" r="125.46" fill="#393d47"/><path d="M298.05 91.21c-35.6 74.26-121.05 65.1-146.82 60.36v38.99c0 56.28 45.77 102.06 102.06 102.06s102.06-45.77 102.06-102.06V144.1c-47.13-3.73-57.3-52.9-57.3-52.9z" fill="#f7cfa2"/><path d="M116.98 468.6a240.49 240.49 0 0 0 36.96 19.66V311.95h-36.96V468.6zm238.71 19.66c12.88-5.42 25.09-12.2 36.96-19.66V311.95h-36.96v176.31z" fill="#886c60"/><path d="M263.46 325.85h-17.97l-24.08 28.82 19.67 28.48-18.99 124.1c10.51 1.36 21.36 2.04 32.55 2.04s22.04-.68 32.55-2.04l-19.32-124.1 19.66-28.48-24.07-28.82z" fill="#4b5aa7"/><path d="M204.8 284.14l48.49 41.7-39 57.31-25.77-79.34zm98.33 0l-48.49 41.7 39 57.31 25.77-79.34z" fill="#fcfcfd"/>
	</g>
	<g transform="translate(0 2040)">
		<circle cx="254.64" cy="254.64" r="254.64" fill="#73d658"/><path d="M405.87 56.96h-75.95c-4.75 0-8.82 5.43-8.82 11.87V440.8c0 6.44 4.07 11.86 8.82 11.86h75.95c4.75 0 8.82-5.42 8.82-11.87V68.84c0-6.78-4.07-11.87-8.82-11.87z" class="f4"/><path d="M376.71 74.26h37.98v5.76h-37.98zm15.26 19.66h22.72v5.76h-22.72zm-15.26 22.04h37.98v5.76h-37.98zm15.26 20.01h22.72v5.76h-22.72zm-15.26 22.04h37.98v5.76h-37.98zm15.26 20h22.72v5.76h-22.72zm-15.26 22.04h37.98v5.76h-37.98zm15.26 19.67h22.72v5.76h-22.72zm-15.26 22.04h37.98v5.76h-37.98zm15.26 20h22.72v5.76h-22.72zm-15.26 22.04h37.98v5.76h-37.98zm15.26 20.01h22.72v5.76h-22.72zm-15.26 21.7h37.98v5.76h-37.98zm15.26 20h22.72v5.76h-22.72zm-15.26 22.05h37.98v5.76h-37.98zm15.26 20h22.72v5.76h-22.72zm-15.26 22.04h37.98v5.76h-37.98zm15.26 19.67h22.72v5.76h-22.72z" fill="#bdbdbe"/><path fill="#f7cfa2" d="M269.22 364.16l-37.3-32.2-36.95 32.2 24.75 59h24.75z"/><path d="M247.86 364.16c-8.81 9.5-22.72 9.5-31.53 0V126.13h31.53v238.03z" fill="#ff7555"/><path d="M269.22 364.16c-6.1 9.5-15.25 9.5-21.36 0V126.13h21.36v238.03z" class="f2"/><path d="M216.33 364.16c-6.1 9.5-15.26 9.5-21.36 0V126.13h21.36v238.03z" fill="#ff9580"/><path class="f3" d="M244.47 423.16h-24.75l12.2 29.16z"/><path d="M269.22 85.78c0-15.93-10.5-28.82-23.4-28.82h-27.8c-12.88 0-23.4 12.89-23.4 28.82v11.53h74.26l.34-11.53z" fill="#f7cfa2"/><path class="f4" d="M194.97 97.31h74.26v28.48h-74.26z"/><path d="M269.9 101.72h-75.95c-2.03 0-3.4 1.7-3.4 4.07s1.7 4.07 3.4 4.07h75.95c2.04 0 3.4-1.7 3.4-4.07a3.42 3.42 0 0 0-3.4-4.07zm0 11.87h-75.95c-2.03 0-3.4 1.7-3.4 4.07s1.7 4.07 3.4 4.07h75.95c2.04 0 3.4-1.7 3.4-4.07a3.58 3.58 0 0 0-3.4-4.07z" fill="#dddee6"/><path d="M121.39 145.12c-12.55 0-23.4 23.06-26.11 84.1h51.54c-2.38-60.7-12.89-84.1-25.43-84.1z" class="f1"/><path d="M119.7 152.24c-9.84 0-24.08-6.44-24.76-30.51-.68-24.08 17.3-48.15 3.4-64.77 0 0 49.5 19 49.5 57.3 0 29.5-13.57 37.98-28.15 37.98z" fill="#393d47"/><path d="M147.16 229.55H95.62c-.34 9.16-.68 19.33-.68 30.18 0 7.12 12.55 188.52 25.77 188.52 13.56 0 26.79-181.74 26.79-188.52 0-11.19 0-21.02-.34-30.18z" fill="#886c60"/>
	</g>
	<g transform="translate(0 2550)">
		<circle cx="254.64" cy="254.64" r="254.64" class="f1"/><path d="M436.73 51.88C335 39.33 228.53 71.88 150.2 150.2S39.33 334.67 51.88 436.73a23.76 23.76 0 0 0 20.68 20.68c101.72 12.54 208.2-20 286.52-98.33S469.95 174.62 457.4 72.56a23.76 23.76 0 0 0-20.68-20.68z" class="f2"/><path d="M143.09 458.77a424.26 424.26 0 0 0 36.28-4.75l-124.1-124.1c-2.37 11.87-3.73 24.07-4.75 36.28l92.57 92.57zm310.93-279.4c2.37-11.87 3.73-24.07 4.75-36.28L366.2 50.52a424.26 424.26 0 0 0-36.28 4.75l124.1 124.1zm-140.38 2.37l-20 20-15.94-16.6c-3.73-3.74-10.17-3.74-13.9 0s-3.73 10.16 0 13.9l16.28 16.27-25.1 25.1-16.27-16.29c-3.73-3.73-10.17-3.73-13.9 0s-3.73 10.18 0 13.9l16.27 16.28L216 279.4l-16.27-16.28a10.03 10.03 0 0 0-13.9 0 10.03 10.03 0 0 0 0 13.9l16.27 16.27-20.35 20.35c-3.73 3.73-3.73 10.17 0 13.9s10.18 3.73 13.9 0l20.01-20 16.28 16.27c3.73 3.73 10.17 3.73 13.9 0s3.73-10.17 0-13.9l-16.28-16.28 25.1-25.09 16.27 16.28c3.73 3.73 10.17 3.73 13.9 0s3.73-10.17 0-13.9l-16.27-16.28 25.09-25.09 16.27 16.28c3.73 3.73 10.17 3.73 13.9 0s3.73-10.18 0-13.9l-16.27-16.28 20-20a10.03 10.03 0 0 0 0-13.9c-3.73-4.08-9.83-4.08-13.9 0z" fill="#fcfcfd"/>
	</g>
	<g transform="translate(0 3060)">
		<circle cx="254.64" cy="254.64" r="254.64" class="f1"/><path class="f2" d="M227.18 210.9L173.6 405.2l80.03 90.53 82.05-88.84L281.1 210.9z"/><path fill="#d54232" d="M227.18 210.9l-53.58-83.75 80.03-28.82 82.05 28.14-54.59 84.43z"/><g class="f4"><path d="M139.36 13.56l115.28 84.77-71.88 108.84L99.69 65.44z"/><path d="M369.93 13.56L254.64 98.33l71.89 108.84L409.6 65.44z"/></g>
	</g>
	<g transform="translate(0 3570)">
		<path d="M256 0c141.38 0 256 114.62 256 256S397.39 512 256 512 0 397.38 0 256 114.61 0 256 0z" fill="#5dddd3"/><path d="M488.18 455.24l-76.54-20.05v40.14l76.54-20.1z" fill="#ffba1b"/><path d="M411.64 446.93c5.21 5.47 5.68 11.01 0 16.66H52.34v-16.66h359.3z" fill="#ff5b61"/><path d="M411.64 446.93c5.07-3.59 5.59-7.47 0-11.74H52.34v11.74h359.3z" fill="#ec4b53"/><path d="M52.34 475.33V435.2H40.99v40.14h11.35z" fill="#ecf0f1"/><path d="M18.3 463.99v-17.46c0-6.24 5.1-11.34 11.34-11.34h11.35v40.14H29.64c-6.24 0-11.35-5.1-11.35-11.34z" fill="#20d0c2"/><path d="M493.71 456.06v-1.67l-34.23-6.68v14.97l34.23-6.62z" fill="#666"/><path d="M411.64 463.6c5.07 3.58 5.59 7.46 0 11.73H52.34V463.6h359.3z" fill="#ec4b53"/><path d="M255.93 447.97c-65.54-25.42-100.22-103.86-95.67-169.68 3.75-54.18 34.08-99.81 95.67-100.3 61.59.48 91.92 46.12 95.67 100.3 4.55 65.82-30.13 144.26-95.67 169.68z" fill="#ffba1b"/><path d="M178.14 219.22c14.95-23.75 39.32-39.78 74-41.13a55.52 55.52 0 0 1-74 41.13zm81.59-41.12c34.68 1.34 59.05 17.37 74 41.12a55.52 55.52 0 0 1-74-41.13z" fill="#f5a209"/><path d="M197.69 212.47c30.57 0 55.5-24.93 55.5-55.5s-24.93-55.5-55.5-55.5a55.6 55.6 0 0 0-55.5 55.5 55.6 55.6 0 0 0 55.5 55.5z" fill="#0e7886"/><path d="M197.69 203.2c25.46 0 46.22-20.77 46.22-46.23s-20.76-46.22-46.22-46.22-46.23 20.76-46.23 46.22 20.77 46.22 46.23 46.22z" fill="#fff"/><path d="M151.68 152.53a46.22 46.22 0 1 0 92.02 0 46.23 46.23 0 0 1-92.01 0h-.01z" fill="#ecf0f1"/><path d="M314.17 212.47c30.57 0 55.5-24.93 55.5-55.5s-24.93-55.5-55.5-55.5-55.5 24.93-55.5 55.5a55.61 55.61 0 0 0 55.5 55.5z" fill="#0e7886"/><path d="M205.48 176.52a25.87 25.87 0 0 0 25.82-25.82 25.87 25.87 0 0 0-25.82-25.81 25.87 25.87 0 0 0-25.82 25.81 25.87 25.87 0 0 0 25.82 25.82z" fill="#15bdb1"/><path d="M314.18 203.2c25.45 0 46.22-20.77 46.22-46.23s-20.76-46.22-46.22-46.22c-25.46 0-46.23 20.76-46.23 46.22s20.77 46.22 46.23 46.22z" fill="#fff"/><path d="M268.17 152.53a46.22 46.22 0 1 0 92.02 0 46.23 46.23 0 0 1-92.02 0z" fill="#ecf0f1"/><path d="M205.48 172.6c12.06 0 21.9-9.83 21.9-21.9 0-12.06-9.84-21.9-21.9-21.9a21.94 21.94 0 0 0-21.9 21.9c0 12.07 9.83 21.9 21.9 21.9z" fill="#20d0c2"/><path d="M205.48 161.5c5.95 0 10.8-4.85 10.8-10.8s-4.86-10.79-10.8-10.79-10.8 4.85-10.8 10.8c0 5.94 4.85 10.8 10.8 10.8z" fill="#666"/><path d="M306.38 176.52a25.87 25.87 0 0 0 25.82-25.82 25.87 25.87 0 0 0-25.82-25.81 25.87 25.87 0 0 0-25.81 25.81 25.87 25.87 0 0 0 25.81 25.82z" fill="#15bdb1"/><path d="M306.38 172.6c12.07 0 21.9-9.83 21.9-21.9 0-12.06-9.83-21.9-21.9-21.9a21.95 21.95 0 0 0-21.9 21.9c0 12.07 9.84 21.9 21.9 21.9z" fill="#20d0c2"/><path d="M306.38 161.5c5.95 0 10.8-4.85 10.8-10.8a10.81 10.81 0 0 0-21.6.01c0 5.94 4.86 10.8 10.8 10.8z" fill="#666"/><path d="M255.93 79.64c0-18.1 59.86 16.74 98.31-22.6-5.14 120.25-61.62-34.09-98.3 120.96-36.7-155.05-93.17-.71-98.32-120.96 38.45 39.34 98.31 4.5 98.31 22.6z" fill="#0e7886"/><path d="M349.35 92.68c-15.49 47.85-61.8-32.83-93.42 100.79C224.3 59.84 178 140.53 162.5 92.68c25.4 10.26 74.76-5.89 93.43 64.29 19.1-71.27 68.03-54.03 93.42-64.29z" fill="#ffba1b"/><path d="M335.38 221.7c1.58 4.62 2.73 167.82-55.7 213.85 35.56-9.85 155.12-140.3 55.7-213.86z" fill="#0e7886"/><path d="M255.93 159.68l-16.3 16.6 16.3 33.15v-49.76z" fill="#ff5b61"/><path d="M255.93 159.68l16.29 16.6-16.3 33.15v-49.76z" fill="#ec4b53"/><path d="M176.63 221.7c-1.59 4.62-2.74 167.82 55.7 213.85-35.57-9.85-155.13-140.3-55.7-213.86z" fill="#0e7886"/><path d="M279.3 421.23c3.55 0 6.64 2.16 8.3 5.37 1.67-3.21 4.77-5.37 8.31-5.37 3.55 0 6.64 2.16 8.3 5.37 1.67-3.21 4.77-5.37 8.31-5.37 5.3 0 9.6 4.84 9.6 10.8 0 5.96-4.3 10.8-9.6 10.8-3.54 0-6.64-2.15-8.3-5.37-1.67 3.21-4.76 5.37-8.3 5.37-3.55 0-6.65-2.15-8.31-5.37-1.67 3.21-4.76 5.37-8.3 5.37-5.31 0-9.61-4.84-9.61-10.8 0-5.96 4.3-10.8 9.6-10.8z" fill="#fff"/><path d="M274.28 442.9c2.18 7.24 5.31 13.93 5.31 13.93s4.88-7.85 4.68-13.8c-.36-10.77-12.17-7.37-9.99-.13zm33.52 0c1.43 7.24 3.88 13.93 3.88 13.93s5.69-7.85 6.1-13.8c.74-10.77-11.41-7.37-9.98-.13zm-16.24 0c1.5 7.24 4 13.93 4 13.93s5.62-7.85 5.98-13.8c.65-10.77-11.48-7.37-9.98-.13z" fill="#666"/><path d="M232 421.23c-3.54 0-6.64 2.16-8.3 5.37-1.67-3.21-4.76-5.37-8.3-5.37-3.55 0-6.65 2.16-8.31 5.37-1.67-3.21-4.76-5.37-8.3-5.37-5.31 0-9.61 4.84-9.61 10.8 0 5.96 4.3 10.8 9.6 10.8 3.55 0 6.65-2.15 8.31-5.37 1.67 3.21 4.76 5.37 8.3 5.37 3.55 0 6.64-2.15 8.3-5.37 1.67 3.21 4.77 5.37 8.31 5.37 5.31 0 9.61-4.84 9.61-10.8 0-5.96-4.3-10.8-9.6-10.8z" fill="#fff"/><path d="M237.03 442.9c-2.18 7.24-5.32 13.93-5.32 13.93s-4.88-7.85-4.68-13.8c.37-10.77 12.17-7.37 10-.13zm-33.52 0c-1.44 7.24-3.89 13.93-3.89 13.93s-5.68-7.85-6.1-13.8c-.73-10.77 11.42-7.37 9.99-.13zm16.24 0c-1.5 7.24-4 13.93-4 13.93s-5.62-7.85-5.98-13.8c-.66-10.77 11.47-7.37 9.98-.13z" fill="#666"/><path d="M195.36 149.27a5.4 5.4 0 0 0 0-10.8 5.4 5.4 0 0 0 0 10.8zm103.42-.97a5.41 5.41 0 0 0 0-10.8 5.4 5.4 0 0 0 0 10.8z" fill="#fff"/>
	</g>
	<g transform="translate(0 4083)">
		<circle cx="254.64" cy="254.64" r="254.64" class="f2"/><path fill="#886c60" d="M46.11 46.11h417.4v417.4H46.11z"/><path class="f4" d="M67.47 200.39h374.34v108.16H67.47z"/><path fill="#74594e" d="M67.47 327.88h374.34v113.93H67.47z"/><path d="M73.92 332.29h177.67V437.4H73.92zm183.77 0h177.67V437.4H257.69z" fill="#886c60"/><path d="M207.17 297.37v-7.12l4.75-11.53h-1.35v-1.7h-79.69c-7.8 9.84-7.8 22.04 0 31.88h79.68v-3.73h-.67l-2.72-7.8z" fill="#f8b517"/><path d="M213.28 280.75h63.4v-3.73h-66.45c-7.8 9.84-7.8 22.04 0 31.88h66.45v-3.73h-63.4c-5.09-7.8-5.09-16.96 0-24.42z" fill="#f5ea0a"/><path d="M213.28 280.75c-5.09 7.8-5.09 16.62 0 24.42h63.4c-6.44-7.46-6.44-16.96 0-24.42h-63.4z" fill="#fffffc"/><path d="M201.4 267.19v-6.1l4.08-9.84h-1.02v-1.7h-68.15c-6.45 8.49-6.45 18.66 0 27.13h68.15v-3.05h-.68l-2.37-6.44z" fill="#73d658"/><path d="M206.5 252.95h54.25v-3.05h-56.63c-6.44 8.47-6.44 18.65 0 27.12h56.63v-3.05H206.5c-4.41-6.78-4.41-14.58 0-21.02z" fill="#11a34d"/><path d="M206.5 252.95a17.83 17.83 0 0 0 0 20.68h54.25c-5.43-6.44-5.43-14.58 0-20.68H206.5z" fill="#fffffc"/><path d="M189.2 228.2h54.26c5.08 6.78 5.08 14.92 0 21.7H189.2c0-.34 2.38-5.77 2.38-10.85.33-5.43-2.38-10.85-2.38-10.85z" fill="#0090ff"/><path d="M187.5 230.57h-43.05v-2.37h45.1c5.08 6.78 5.08 14.92 0 21.7h-45.1v-2.38h43.06c3.73-5.42 3.73-11.53 0-16.95z" fill="#007bce"/><path d="M187.5 230.57a14.84 14.84 0 0 1 0 16.61h-43.05c4.4-5.08 4.4-11.52 0-16.61h43.06z" fill="#fff"/><path class="f4" d="M67.47 67.47h374.34V181.4H67.47z"/><path class="f2" d="M108.42 177.03l-19.53 4.34-21.32-96 19.52-4.33z"/><path class="f1" d="M120.35 178.7l-11.26 2.5-21.33-96 11.26-2.5z"/><path fill="#0090ff" d="M135.27 178.19l-14.23 3.16-17.28-77.78 14.23-3.16z"/><path fill="#f8b517" d="M162.6 175.55l-26.48 5.88-21.4-96.32 26.48-5.88z"/><path fill="#73d658" d="M186.97 176.4l-23.17 5.15-19.12-86.07 23.16-5.14z"/><path fill="#e74938" d="M201.27 178.41l-13.23 2.94-15-67.52 13.23-2.94z"/><path fill="#4b5aa7" d="M219.53 177.75l-17.54 3.9L183 96.25l17.54-3.9z"/><path fill="#f0ba7a" d="M422.32 81.07l19.53 4.34-21.33 95.99-19.52-4.34z"/><path fill="#4484c5" d="M410.14 83.13l11.26 2.5-21.33 96-11.25-2.51z"/><path fill="#73d658" d="M391.38 100.48l14.23 3.16-17.28 77.79-14.24-3.17z"/><path fill="#646b79" d="M362.02 107.9l17.21 3.82-15.08 67.86-17.2-3.83z"/><path fill="#ee4a68" d="M379.44 111.66l8.93 1.98-15.08 67.86-8.93-1.99z"/><path fill="#f0ba7a" d="M341.67 90.22l23.17 5.14-19.12 86.06-23.17-5.14z"/><path fill="#3eb9e3" d="M323.2 110.98l13.23 2.95-15 67.52-13.24-2.94z"/><path fill="#886c60" d="M308.56 92.1l17.55 3.89-18.98 85.4-17.54-3.9z"/><path fill="#4b5aa7" d="M418.77 217.67l23.16 5.14-19.12 86.07-23.17-5.15z"/><path class="f1" d="M399.98 238.36l13.23 2.94-15 67.53-13.24-2.94z"/><path fill="#e74938" d="M385.65 219.55l17.54 3.9-18.97 85.4-17.54-3.9z"/><g fill="#74594e"><circle cx="221.75" cy="384.85" r="7.12"/><circle cx="287.53" cy="384.85" r="7.12"/></g>
	</g>
	<g transform="translate(0 4593)">
		<circle cx="254.64" cy="254.64" r="254.64" fill="#6eb1e1"/><path fill="#fcfcfd" d="M177 280.07L53.57 355.7v54.93l164.45-30.18z"/><path d="M61.37 298.38c-9.15 10.52-13.9 23.06-16.27 32.9h32.2c-2.03-9.84-6.77-22.38-15.93-32.9z" fill="#646b79"/><path d="M45.1 331.27c-2.38 9.84-2.38 16.96-2.38 16.96v72.9h36.62v-72.9s0-7.12-2.37-16.96H45.1z" class="f4"/><g fill="#646b79"><path d="M43.06 407.57h36.62v13.9H43.06z"/><circle cx="126.14" cy="356.7" r="19.67"/></g><path fill="#fcfcfd" d="M332.3 280.07l123.4 75.63v54.93l-164.45-30.18z"/><path d="M447.92 298.38c9.15 10.52 13.9 23.06 16.27 32.9h-32.21c2.03-9.84 6.78-22.38 15.94-32.9z" fill="#646b79"/><path d="M464.2 331.27c2.36 9.84 2.36 16.96 2.36 16.96v72.9h-36.62v-72.9s0-7.12 2.38-16.96h31.87z" class="f4"/><g fill="#646b79"><path d="M429.61 407.57h36.62v13.9h-36.62z"/><circle cx="383.15" cy="356.7" r="19.67"/><path d="M196.66 431.3h115.96s4.41-8.14 9.5-23.4H187.17c5.08 14.92 9.5 23.4 9.5 23.4z"/></g><path d="M303.8 121.05h-98.32c-57.3 134.27-33.9 241.42-18.31 286.86h135.29c15.26-45.44 39-152.59-18.65-286.86z" class="f4"/><path d="M254.64 30.52c-20.68 31.2-36.95 61.37-49.16 90.53h98.33c-12.2-29.16-28.48-59.34-49.17-90.53z" fill="#646b79"/><circle cx="254.64" cy="231.93" r="57.98" class="f2"/><circle cx="254.64" cy="231.93" r="36.62" fill="#fffffc"/>
	</g>
</svg>